PathFileType	4	(X/Y/Z)	C:\Users\WrightLab\Desktop\Jo\P1_boxCal10.trc
DataRate	CameraRate	NumFrames	NumMarkers	Units	OrigDataRate	OrigDataStartFrame	OrigNumFrames
100.00	100.00	       10	19	mm	100.00	469	       625
Frame#	Time	Headset_Front			Headset_Back			Headset_Left			Headset_Right			Left_Shoulder			Right_Shoulder			Sternum			C7			Left Elbow			Right Elbow			Left Wrist			Right Wrist			Left ASIS			Right ASIS			S2			Left Knee			Right Knee			Left Ankle			Right Ankle			
		X1	Y1	Z1	X2	Y2	Z2	X3	Y3	Z3	X4	Y4	Z4	X5	Y5	Z5	X6	Y6	Z6	X7	Y7	Z7	X8	Y8	Z8	X9	Y9	Z9	X10	Y10	Z10	X11	Y11	Z11	X12	Y12	Z12	X13	Y13	Z13	X14	Y14	Z14	X15	Y15	Z15	X16	Y16	Z16	X17	Y17	Z17	X18	Y18	Z18	X19	Y19	Z19	

469	4.680							-313.39523	1505.71594	1826.73438				-186.05466	1315.63245	1827.35059	-515.21863	1301.79492	1637.04419	-443.19919	1228.67883	1851.26404										-86.96105	843.49359	2011.26147	-679.28778	809.66705	1614.94714	-367.46155	950.93884	1949.56873	-534.79437	940.98938	1839.50464	-274.12253	911.76898	1633.66736	-213.12442	522.73596	2018.07996	-515.75830	486.04657	1772.46362	-77.56780	258.63495	1823.77856	-436.83389	119.96311	1807.56238	
470	4.690							-318.55609	1506.11890	1832.94568				-191.18013	1316.43079	1835.68396	-516.60022	1303.45166	1636.30945	-449.19247	1230.39221	1857.32825										-92.90583	843.48505	2019.35193	-687.70166	813.92529	1625.36926	-375.41614	952.77448	1955.74902	-540.33759	942.51538	1842.58459	-276.13669	914.48438	1639.64197	-226.48451	526.13855	2030.61401	-517.34119	485.69305	1771.48889	-88.81506	253.06670	1849.59412	-436.88766	120.05055	1807.56946	
471	4.700							-323.84775	1507.25818	1840.04712				-196.36594	1316.92444	1844.15454	-519.02228	1304.39844	1639.77161	-454.80045	1230.64795	1860.22375							-566.22430	1029.17053	1569.73108	-99.80606	843.86859	2027.36865	-695.14294	818.26550	1634.59851	-383.82321	953.44250	1961.22595				-276.70834	913.47552	1648.20801	-238.70792	530.95746	2043.87219	-518.89349	485.46579	1771.08972	-100.65746	245.97104	1875.44641	-437.12253	119.82729	1808.44861	
472	4.710							-328.11990	1507.99988	1846.40662				-201.76118	1317.50879	1853.13623	-520.84497	1305.24585	1643.27966	-459.72263	1231.15100	1863.75232							-569.67352	1031.16016	1571.98755	-106.20469	844.28412	2036.85632	-703.07465	823.44153	1645.43164	-392.28220	954.55469	1966.89490				-277.83420	914.42792	1658.28271	-251.71877	533.38171	2055.75269	-520.29742	485.17667	1771.44006	-114.39413	239.81087	1899.31372	-437.16412	119.84719	1808.43469	
473	4.720							-333.49228	1507.92371	1853.21521				-207.15967	1318.24512	1861.85327	-522.89532	1305.92493	1646.73572													-112.54543	843.98004	2044.38062	-709.35358	826.18500	1656.90662	-401.08624	955.06488	1972.52917							-263.55069	536.37549	2068.61890	-521.82501	485.17285	1772.09790	-128.20711	234.45143	1925.80627	-437.26727	119.87814	1809.31360	
474	4.730							-338.31815	1508.48499	1858.54626				-212.72887	1318.79346	1871.18530	-524.67053	1306.57507	1650.13171													-119.24755	844.32501	2053.93188	-716.06470	831.70984	1665.35547	-409.97931	955.55896	1977.78210							-277.68945	537.86469	2077.85498	-523.34503	484.90616	1773.18848	-142.43277	228.02766	1951.12061	-437.33249	120.06585	1809.33435	
475	4.740							-343.23688	1508.93311	1866.43176				-218.45897	1319.61621	1879.84155	-525.55896	1306.26782	1655.15112													-125.97067	844.47528	2062.83936	-721.12500	835.33545	1676.17358	-418.40689	956.00616	1983.38611							-291.05231	541.35889	2089.97852	-524.86310	484.18591	1775.71362	-156.85527	222.61385	1977.37830	-437.36252	120.21044	1809.33936	
476	4.750							-347.56332	1508.92493	1871.32690				-224.05589	1320.27002	1889.25281	-527.65741	1307.48926	1656.05908													-132.57855	843.45001	2069.80591	-726.27924	840.01874	1685.73340	-426.88840	955.69086	1988.06409							-303.60107	541.97461	2098.79346	-526.00549	483.69409	1777.33911	-170.70377	216.18922	2002.90308	-437.37234	120.31847	1809.36401	
477	4.760							-352.76721	1509.10449	1878.36060				-230.23820	1320.55591	1897.88879	-529.04749	1307.74817	1658.82092													-139.99083	844.05945	2077.20117	-730.85876	843.91022	1695.77319	-436.18164	955.87354	1994.16565							-316.95380	542.85419	2107.62622	-526.95465	483.40503	1778.56775	-186.83479	209.15161	2025.81982	-437.48044	120.36914	1810.30188	
478	4.770							-357.94897	1508.94922	1885.53284				-236.79097	1321.66113	1908.59387	-530.11847	1307.96851	1661.86682													-146.71353	843.34814	2085.60962	-734.76642	847.10455	1706.30969	-445.07199	955.37860	1998.78577							-329.79236	543.64746	2116.26953	-527.95099	482.41232	1781.12390	-203.33644	205.43529	2054.20996	-437.23019	120.61864	1810.96570	
